<?xml version="1.0" standalone="no"?>
<!DOCTYPE svg PUBLIC "-//W3C//DTD SVG 20010904//EN"
 "http://www.w3.org/TR/2001/REC-SVG-20010904/DTD/svg10.dtd">
<svg version="1.0" xmlns="http://www.w3.org/2000/svg"
 width="279.000000pt" height="279.000000pt" viewBox="0 0 279.000000 279.000000"
 preserveAspectRatio="xMidYMid meet">
<g transform="translate(0.000000,279.000000) scale(0.100000,-0.100000)"
fill="#000000" stroke="none">
<path d="M543 1863 c3 -511 8 -952 11 -980 15 -146 24 -199 42 -234 7 -15 10
-29 7 -33 -4 -3 -1 -6 5 -6 7 0 12 -7 12 -15 0 -8 5 -15 11 -15 5 0 8 -4 4 -9
-3 -5 3 -17 12 -27 10 -10 18 -20 18 -23 0 -3 16 -23 35 -43 19 -21 40 -43 46
-50 6 -7 25 -24 43 -38 18 -14 42 -33 53 -42 12 -10 24 -18 28 -18 3 0 16 -9
28 -20 12 -12 22 -18 22 -14 0 3 7 1 14 -6 8 -6 73 -41 143 -77 70 -35 135
-71 143 -78 8 -7 21 -15 29 -17 13 -3 37 -22 108 -85 35 -30 37 -31 59 -15 12
9 20 20 17 25 -2 4 3 7 11 7 9 0 16 4 16 8 0 4 13 16 30 25 16 10 35 23 42 30
7 7 35 23 62 37 26 14 50 31 53 37 3 7 9 11 13 8 11 -7 169 76 250 130 86 58
151 115 144 126 -3 5 0 8 7 7 17 -4 105 124 129 188 23 62 29 89 36 164 14
149 16 268 21 1093 l5 887 -857 0 -857 0 5 -927z"/>
</g>
</svg>
