<svg enable-background="new 0 0 50 50" viewBox="0 0 50 50" xmlns="http://www.w3.org/2000/svg"><g fill="#3c3c3c"><path d="m25 0c-13.8 0-25 11.2-25 25s11.2 25 25 25 25-11.2 25-25-11.2-25-25-25zm0 48.1c-12.7 0-23.1-10.4-23.1-23.1s10.4-23.1 23.1-23.1 23.1 10.4 23.1 23.1-10.4 23.1-23.1 23.1zm0 0"/><path d="m34.3 15.7c-.4-.4-1-.4-1.4 0l-8 8-8-8c-.4-.4-1-.4-1.4 0s-.4 1 0 1.4l8 8-8 8c-.4.4-.4 1 0 1.4.2.2.4.3.7.3.2 0 .5-.1.7-.3l8-8 8 8c.2.2.4.3.7.3.2 0 .5-.1.7-.3.4-.4.4-1 0-1.4l-8-8 8-8c.4-.5.4-1.1 0-1.4zm0 0"/></g></svg>