<svg enable-background="new 0 0 96 96" viewBox="0 0 96 96" xmlns="http://www.w3.org/2000/svg"><path d="m94.2 48c0 25.5-20.7 46.2-46.2 46.2s-46.2-20.7-46.2-46.2 20.7-46.2 46.2-46.2 46.2 20.7 46.2 46.2zm0 0" fill="#878787"/><path d="m96 48c0 26.5-21.5 48-48 48s-48-21.5-48-48 21.5-48 48-48 48 21.5 48 48zm-92.4 0c0 24.5 19.9 44.4 44.4 44.4s44.4-19.9 44.4-44.4-19.9-44.5-44.4-44.5-44.4 20-44.4 44.5zm0 0" fill="#878787"/><path d="m71.1 56.4c0 .5-.2.9-.5 1.3-.7.7-1.8.7-2.5 0l-20.1-20.2-20.1 20.1c-.7.7-1.8.7-2.5 0s-.7-1.8 0-2.5l20.4-20.4c1.2-1.2 3.1-1.2 4.3 0l20.4 20.4c.4.4.6.8.6 1.3zm0 0" fill="#fff"/></svg>